<mxfile host="app.diagrams.net" modified="2021-12-21T10:30:44.562Z" agent="5.0 (Macintosh; Intel Mac OS X 10_15_7) AppleWebKit/537.36 (KHTML, like Gecko) Chrome/96.0.4664.110 Safari/537.36" etag="7A6UJ0EW6O1Ise8h03Ol" version="15.9.4" type="github">
  <diagram id="C5RBs43oDa-KdzZeNtuy" name="Page-1">
    <mxGraphModel dx="1953" dy="589" grid="1" gridSize="10" guides="1" tooltips="1" connect="1" arrows="1" fold="1" page="1" pageScale="1" pageWidth="827" pageHeight="1169" math="0" shadow="0">
      <root>
        <mxCell id="WIyWlLk6GJQsqaUBKTNV-0" />
        <mxCell id="WIyWlLk6GJQsqaUBKTNV-1" parent="WIyWlLk6GJQsqaUBKTNV-0" />
        <mxCell id="WIyWlLk6GJQsqaUBKTNV-2" value="" style="rounded=0;html=1;jettySize=auto;orthogonalLoop=1;fontSize=11;endArrow=block;endFill=0;endSize=8;strokeWidth=1;shadow=0;labelBackgroundColor=none;edgeStyle=orthogonalEdgeStyle;startArrow=none;" parent="WIyWlLk6GJQsqaUBKTNV-1" source="3pk-U9PaF1ZGXFq0J-lB-20" target="WIyWlLk6GJQsqaUBKTNV-6" edge="1">
          <mxGeometry relative="1" as="geometry" />
        </mxCell>
        <mxCell id="WIyWlLk6GJQsqaUBKTNV-3" value="&lt;strong style=&quot;color: rgb(23 , 43 , 77) ; font-family: , &amp;#34;system-ui&amp;#34; , &amp;#34;segoe ui&amp;#34; , &amp;#34;roboto&amp;#34; , &amp;#34;oxygen&amp;#34; , &amp;#34;ubuntu&amp;#34; , &amp;#34;fira sans&amp;#34; , &amp;#34;droid sans&amp;#34; , &amp;#34;helvetica neue&amp;#34; , sans-serif ; font-size: 14px ; background-color: rgb(255 , 255 , 255)&quot;&gt;OrderKafkaConsumer&lt;/strong&gt;" style="rounded=1;whiteSpace=wrap;html=1;fontSize=12;glass=0;strokeWidth=1;shadow=0;" parent="WIyWlLk6GJQsqaUBKTNV-1" vertex="1">
          <mxGeometry x="450" y="50" width="170" height="50" as="geometry" />
        </mxCell>
        <mxCell id="WIyWlLk6GJQsqaUBKTNV-4" value="NO" style="rounded=0;html=1;jettySize=auto;orthogonalLoop=1;fontSize=11;endArrow=block;endFill=0;endSize=8;strokeWidth=1;shadow=0;labelBackgroundColor=none;edgeStyle=orthogonalEdgeStyle;" parent="WIyWlLk6GJQsqaUBKTNV-1" source="WIyWlLk6GJQsqaUBKTNV-6" target="WIyWlLk6GJQsqaUBKTNV-10" edge="1">
          <mxGeometry y="20" relative="1" as="geometry">
            <mxPoint as="offset" />
          </mxGeometry>
        </mxCell>
        <mxCell id="WIyWlLk6GJQsqaUBKTNV-5" value="YES" style="edgeStyle=orthogonalEdgeStyle;rounded=0;html=1;jettySize=auto;orthogonalLoop=1;fontSize=11;endArrow=block;endFill=0;endSize=8;strokeWidth=1;shadow=0;labelBackgroundColor=none;" parent="WIyWlLk6GJQsqaUBKTNV-1" source="WIyWlLk6GJQsqaUBKTNV-6" target="WIyWlLk6GJQsqaUBKTNV-7" edge="1">
          <mxGeometry y="10" relative="1" as="geometry">
            <mxPoint as="offset" />
          </mxGeometry>
        </mxCell>
        <mxCell id="WIyWlLk6GJQsqaUBKTNV-6" value="skuStatus==4&lt;br&gt;是否创建订单" style="rhombus;whiteSpace=wrap;html=1;shadow=0;fontFamily=Helvetica;fontSize=12;align=center;strokeWidth=1;spacing=6;spacingTop=-4;" parent="WIyWlLk6GJQsqaUBKTNV-1" vertex="1">
          <mxGeometry x="485" y="200" width="100" height="80" as="geometry" />
        </mxCell>
        <mxCell id="3pk-U9PaF1ZGXFq0J-lB-18" style="edgeStyle=orthogonalEdgeStyle;rounded=0;orthogonalLoop=1;jettySize=auto;html=1;exitX=0.5;exitY=1;exitDx=0;exitDy=0;" edge="1" parent="WIyWlLk6GJQsqaUBKTNV-1" source="WIyWlLk6GJQsqaUBKTNV-7">
          <mxGeometry relative="1" as="geometry">
            <mxPoint x="150" y="320" as="targetPoint" />
          </mxGeometry>
        </mxCell>
        <mxCell id="WIyWlLk6GJQsqaUBKTNV-7" value="查询&lt;span style=&quot;color: rgb(6 , 125 , 23) ; background-color: rgb(255 , 255 , 255) ; font-family: &amp;#34;jetbrains mono&amp;#34; , monospace ; font-size: 9.8pt&quot;&gt;dsp_orders&lt;/span&gt;&lt;span&gt;订单去重&lt;/span&gt;" style="rounded=1;whiteSpace=wrap;html=1;fontSize=12;glass=0;strokeWidth=1;shadow=0;" parent="WIyWlLk6GJQsqaUBKTNV-1" vertex="1">
          <mxGeometry x="90" y="220" width="120" height="40" as="geometry" />
        </mxCell>
        <mxCell id="WIyWlLk6GJQsqaUBKTNV-8" value="" style="rounded=0;html=1;jettySize=auto;orthogonalLoop=1;fontSize=11;endArrow=block;endFill=0;endSize=8;strokeWidth=1;shadow=0;labelBackgroundColor=none;edgeStyle=orthogonalEdgeStyle;" parent="WIyWlLk6GJQsqaUBKTNV-1" source="WIyWlLk6GJQsqaUBKTNV-10" target="WIyWlLk6GJQsqaUBKTNV-11" edge="1">
          <mxGeometry x="0.3333" y="20" relative="1" as="geometry">
            <mxPoint as="offset" />
          </mxGeometry>
        </mxCell>
        <mxCell id="WIyWlLk6GJQsqaUBKTNV-10" value="skuStatus==6&lt;br&gt;是否终止订单" style="rhombus;whiteSpace=wrap;html=1;shadow=0;fontFamily=Helvetica;fontSize=12;align=center;strokeWidth=1;spacing=6;spacingTop=-4;" parent="WIyWlLk6GJQsqaUBKTNV-1" vertex="1">
          <mxGeometry x="485" y="330" width="100" height="80" as="geometry" />
        </mxCell>
        <mxCell id="WIyWlLk6GJQsqaUBKTNV-11" value="获取订单关联的排期信息&lt;span style=&quot;background-color: rgb(255 , 255 , 255) ; color: rgb(8 , 8 , 8) ; font-family: &amp;#34;jetbrains mono&amp;#34; , monospace ; font-size: 9.8pt&quot;&gt;dsp_order_adplace&lt;/span&gt;" style="rounded=1;whiteSpace=wrap;html=1;fontSize=12;glass=0;strokeWidth=1;shadow=0;" parent="WIyWlLk6GJQsqaUBKTNV-1" vertex="1">
          <mxGeometry x="452.5" y="450" width="165" height="40" as="geometry" />
        </mxCell>
        <mxCell id="3pk-U9PaF1ZGXFq0J-lB-10" value="ISP/ASP" style="ellipse;shape=cloud;whiteSpace=wrap;html=1;" vertex="1" parent="WIyWlLk6GJQsqaUBKTNV-1">
          <mxGeometry x="30" y="20" width="120" height="80" as="geometry" />
        </mxCell>
        <mxCell id="3pk-U9PaF1ZGXFq0J-lB-14" value="" style="curved=1;endArrow=classic;html=1;rounded=0;entryX=0.5;entryY=0;entryDx=0;entryDy=0;exitX=0.96;exitY=0.7;exitDx=0;exitDy=0;exitPerimeter=0;" edge="1" parent="WIyWlLk6GJQsqaUBKTNV-1" source="3pk-U9PaF1ZGXFq0J-lB-10" target="WIyWlLk6GJQsqaUBKTNV-3">
          <mxGeometry width="50" height="50" relative="1" as="geometry">
            <mxPoint x="90" y="80" as="sourcePoint" />
            <mxPoint x="140" y="90" as="targetPoint" />
            <Array as="points">
              <mxPoint x="140" y="170" />
              <mxPoint x="350" y="10" />
            </Array>
          </mxGeometry>
        </mxCell>
        <mxCell id="3pk-U9PaF1ZGXFq0J-lB-15" value="kafka:topic(&lt;span style=&quot;color: rgb(6 , 125 , 23) ; font-family: &amp;#34;jetbrains mono&amp;#34; , monospace ; font-size: 9.8pt&quot;&gt;sync_by_controller&lt;/span&gt;)&lt;br&gt;入参：{&quot;orderType&quot;:0,&quot;skuStatus&quot;:4,&quot;orderStatus&quot;:1003,&quot;orderCode&quot;:&quot;AO20200527079522&quot;}" style="edgeLabel;html=1;align=center;verticalAlign=middle;resizable=0;points=[];" vertex="1" connectable="0" parent="3pk-U9PaF1ZGXFq0J-lB-14">
          <mxGeometry x="-0.0963" y="-21" relative="1" as="geometry">
            <mxPoint x="-123" y="45" as="offset" />
          </mxGeometry>
        </mxCell>
        <mxCell id="3pk-U9PaF1ZGXFq0J-lB-22" style="edgeStyle=orthogonalEdgeStyle;rounded=0;orthogonalLoop=1;jettySize=auto;html=1;exitX=0.5;exitY=1;exitDx=0;exitDy=0;" edge="1" parent="WIyWlLk6GJQsqaUBKTNV-1" source="3pk-U9PaF1ZGXFq0J-lB-19">
          <mxGeometry relative="1" as="geometry">
            <mxPoint x="150" y="480" as="targetPoint" />
          </mxGeometry>
        </mxCell>
        <mxCell id="3pk-U9PaF1ZGXFq0J-lB-26" value="" style="edgeStyle=orthogonalEdgeStyle;rounded=0;orthogonalLoop=1;jettySize=auto;html=1;" edge="1" parent="WIyWlLk6GJQsqaUBKTNV-1" source="3pk-U9PaF1ZGXFq0J-lB-19" target="3pk-U9PaF1ZGXFq0J-lB-25">
          <mxGeometry relative="1" as="geometry" />
        </mxCell>
        <mxCell id="3pk-U9PaF1ZGXFq0J-lB-27" value="=1，B类订单" style="edgeLabel;html=1;align=center;verticalAlign=middle;resizable=0;points=[];" vertex="1" connectable="0" parent="3pk-U9PaF1ZGXFq0J-lB-26">
          <mxGeometry x="-0.225" y="3" relative="1" as="geometry">
            <mxPoint as="offset" />
          </mxGeometry>
        </mxCell>
        <mxCell id="3pk-U9PaF1ZGXFq0J-lB-19" value="判断订单类型orderType" style="rhombus;whiteSpace=wrap;html=1;" vertex="1" parent="WIyWlLk6GJQsqaUBKTNV-1">
          <mxGeometry x="90" y="290" width="120" height="100" as="geometry" />
        </mxCell>
        <mxCell id="3pk-U9PaF1ZGXFq0J-lB-20" value="处理是否是isp来源订单，还是asp来源订单" style="rounded=1;whiteSpace=wrap;html=1;" vertex="1" parent="WIyWlLk6GJQsqaUBKTNV-1">
          <mxGeometry x="467.5" y="120" width="135" height="30" as="geometry" />
        </mxCell>
        <mxCell id="3pk-U9PaF1ZGXFq0J-lB-21" value="" style="rounded=0;html=1;jettySize=auto;orthogonalLoop=1;fontSize=11;endArrow=none;endFill=0;endSize=8;strokeWidth=1;shadow=0;labelBackgroundColor=none;edgeStyle=orthogonalEdgeStyle;" edge="1" parent="WIyWlLk6GJQsqaUBKTNV-1" source="WIyWlLk6GJQsqaUBKTNV-3" target="3pk-U9PaF1ZGXFq0J-lB-20">
          <mxGeometry relative="1" as="geometry">
            <mxPoint x="535" y="120" as="sourcePoint" />
            <mxPoint x="535" y="200" as="targetPoint" />
          </mxGeometry>
        </mxCell>
        <mxCell id="3pk-U9PaF1ZGXFq0J-lB-24" value="=0，A类订单" style="edgeStyle=orthogonalEdgeStyle;rounded=0;orthogonalLoop=1;jettySize=auto;html=1;" edge="1" parent="WIyWlLk6GJQsqaUBKTNV-1" source="3pk-U9PaF1ZGXFq0J-lB-23" target="3pk-U9PaF1ZGXFq0J-lB-19">
          <mxGeometry relative="1" as="geometry" />
        </mxCell>
        <mxCell id="3pk-U9PaF1ZGXFq0J-lB-29" value="" style="edgeStyle=orthogonalEdgeStyle;rounded=0;orthogonalLoop=1;jettySize=auto;html=1;" edge="1" parent="WIyWlLk6GJQsqaUBKTNV-1" source="3pk-U9PaF1ZGXFq0J-lB-23" target="3pk-U9PaF1ZGXFq0J-lB-28">
          <mxGeometry relative="1" as="geometry" />
        </mxCell>
        <mxCell id="3pk-U9PaF1ZGXFq0J-lB-23" value="根据上面得到的标识，调用isp/asp A类接口，获取订单信息，及其sku信息" style="rounded=1;whiteSpace=wrap;html=1;" vertex="1" parent="WIyWlLk6GJQsqaUBKTNV-1">
          <mxGeometry x="90" y="440" width="120" height="60" as="geometry" />
        </mxCell>
        <mxCell id="3pk-U9PaF1ZGXFq0J-lB-30" style="edgeStyle=orthogonalEdgeStyle;rounded=0;orthogonalLoop=1;jettySize=auto;html=1;exitX=0.5;exitY=1;exitDx=0;exitDy=0;entryX=0.5;entryY=0;entryDx=0;entryDy=0;" edge="1" parent="WIyWlLk6GJQsqaUBKTNV-1" source="3pk-U9PaF1ZGXFq0J-lB-25" target="3pk-U9PaF1ZGXFq0J-lB-28">
          <mxGeometry relative="1" as="geometry" />
        </mxCell>
        <mxCell id="3pk-U9PaF1ZGXFq0J-lB-25" value="&lt;span&gt;根据上面得到的标识，调用isp/asp B类接口，获取订单信息，及其sku信息&lt;/span&gt;" style="rounded=1;whiteSpace=wrap;html=1;" vertex="1" parent="WIyWlLk6GJQsqaUBKTNV-1">
          <mxGeometry x="250" y="410" width="120" height="60" as="geometry" />
        </mxCell>
        <mxCell id="3pk-U9PaF1ZGXFq0J-lB-32" value="" style="edgeStyle=orthogonalEdgeStyle;rounded=0;orthogonalLoop=1;jettySize=auto;html=1;" edge="1" parent="WIyWlLk6GJQsqaUBKTNV-1" source="3pk-U9PaF1ZGXFq0J-lB-28" target="3pk-U9PaF1ZGXFq0J-lB-31">
          <mxGeometry relative="1" as="geometry" />
        </mxCell>
        <mxCell id="3pk-U9PaF1ZGXFq0J-lB-28" value="插入订单表&lt;span style=&quot;background-color: rgb(255 , 255 , 255) ; font-family: &amp;#34;jetbrains mono&amp;#34; , monospace ; font-size: 9.8pt&quot;&gt;dsp_orders&lt;br&gt;&lt;/span&gt;" style="whiteSpace=wrap;html=1;rounded=1;" vertex="1" parent="WIyWlLk6GJQsqaUBKTNV-1">
          <mxGeometry x="90" y="570" width="120" height="60" as="geometry" />
        </mxCell>
        <mxCell id="3pk-U9PaF1ZGXFq0J-lB-35" value="" style="edgeStyle=orthogonalEdgeStyle;rounded=0;orthogonalLoop=1;jettySize=auto;html=1;" edge="1" parent="WIyWlLk6GJQsqaUBKTNV-1" source="3pk-U9PaF1ZGXFq0J-lB-31" target="3pk-U9PaF1ZGXFq0J-lB-34">
          <mxGeometry relative="1" as="geometry" />
        </mxCell>
        <mxCell id="3pk-U9PaF1ZGXFq0J-lB-31" value="插入排期表&lt;span style=&quot;background-color: rgb(255 , 255 , 255) ; font-family: &amp;#34;jetbrains mono&amp;#34; , monospace ; font-size: 9.8pt&quot;&gt;dsp_order_adplace,&lt;br&gt;其中会分a,b类订单进行数据整合&lt;br&gt;&lt;/span&gt;" style="whiteSpace=wrap;html=1;rounded=1;" vertex="1" parent="WIyWlLk6GJQsqaUBKTNV-1">
          <mxGeometry x="70" y="660" width="160" height="65" as="geometry" />
        </mxCell>
        <mxCell id="3pk-U9PaF1ZGXFq0J-lB-37" value="" style="edgeStyle=orthogonalEdgeStyle;rounded=0;orthogonalLoop=1;jettySize=auto;html=1;fontColor=#330000;" edge="1" parent="WIyWlLk6GJQsqaUBKTNV-1" source="3pk-U9PaF1ZGXFq0J-lB-34" target="3pk-U9PaF1ZGXFq0J-lB-36">
          <mxGeometry relative="1" as="geometry" />
        </mxCell>
        <mxCell id="3pk-U9PaF1ZGXFq0J-lB-34" value="&lt;font color=&quot;#330000&quot;&gt;创建广告计划&lt;/font&gt;&lt;span style=&quot;color: rgb(51 , 0 , 0) ; background-color: rgb(255 , 255 , 255) ; font-family: &amp;#34;jetbrains mono&amp;#34; , monospace ; font-size: 9.8pt&quot;&gt;dsp_campaigns&lt;/span&gt;" style="whiteSpace=wrap;html=1;rounded=1;" vertex="1" parent="WIyWlLk6GJQsqaUBKTNV-1">
          <mxGeometry x="85" y="760" width="130" height="62.5" as="geometry" />
        </mxCell>
        <mxCell id="3pk-U9PaF1ZGXFq0J-lB-39" value="" style="edgeStyle=orthogonalEdgeStyle;rounded=0;orthogonalLoop=1;jettySize=auto;html=1;fontColor=#330000;" edge="1" parent="WIyWlLk6GJQsqaUBKTNV-1" source="3pk-U9PaF1ZGXFq0J-lB-36" target="3pk-U9PaF1ZGXFq0J-lB-38">
          <mxGeometry relative="1" as="geometry" />
        </mxCell>
        <mxCell id="3pk-U9PaF1ZGXFq0J-lB-36" value="&lt;font color=&quot;#330000&quot;&gt;更新dsp_orders表&lt;span style=&quot;background-color: rgb(255 , 255 , 255) ; font-family: &amp;#34;jetbrains mono&amp;#34; , monospace ; font-size: 9.8pt&quot;&gt;have_campaign=1&lt;/span&gt;&lt;/font&gt;" style="whiteSpace=wrap;html=1;rounded=1;" vertex="1" parent="WIyWlLk6GJQsqaUBKTNV-1">
          <mxGeometry x="90" y="860" width="120" height="60" as="geometry" />
        </mxCell>
        <mxCell id="3pk-U9PaF1ZGXFq0J-lB-41" value="" style="edgeStyle=orthogonalEdgeStyle;rounded=0;orthogonalLoop=1;jettySize=auto;html=1;fontColor=#330000;" edge="1" parent="WIyWlLk6GJQsqaUBKTNV-1" source="3pk-U9PaF1ZGXFq0J-lB-38" target="3pk-U9PaF1ZGXFq0J-lB-40">
          <mxGeometry relative="1" as="geometry" />
        </mxCell>
        <mxCell id="3pk-U9PaF1ZGXFq0J-lB-45" value="" style="edgeStyle=orthogonalEdgeStyle;rounded=0;orthogonalLoop=1;jettySize=auto;html=1;fontSize=12;fontColor=#330000;" edge="1" parent="WIyWlLk6GJQsqaUBKTNV-1" source="3pk-U9PaF1ZGXFq0J-lB-38" target="3pk-U9PaF1ZGXFq0J-lB-44">
          <mxGeometry relative="1" as="geometry" />
        </mxCell>
        <mxCell id="3pk-U9PaF1ZGXFq0J-lB-38" value="&lt;pre style=&quot;background-color: #ffffff ; color: #080808 ; font-family: &amp;#34;jetbrains mono&amp;#34; , monospace ; font-size: 9.8pt&quot;&gt;创建广告组dsp_audiences表&lt;/pre&gt;" style="whiteSpace=wrap;html=1;rounded=1;" vertex="1" parent="WIyWlLk6GJQsqaUBKTNV-1">
          <mxGeometry x="40" y="950" width="220" height="60" as="geometry" />
        </mxCell>
        <mxCell id="3pk-U9PaF1ZGXFq0J-lB-43" value="" style="edgeStyle=orthogonalEdgeStyle;rounded=0;orthogonalLoop=1;jettySize=auto;html=1;fontColor=#330000;" edge="1" parent="WIyWlLk6GJQsqaUBKTNV-1" source="3pk-U9PaF1ZGXFq0J-lB-40" target="3pk-U9PaF1ZGXFq0J-lB-42">
          <mxGeometry relative="1" as="geometry" />
        </mxCell>
        <mxCell id="3pk-U9PaF1ZGXFq0J-lB-40" value="B类订单" style="shape=step;perimeter=stepPerimeter;whiteSpace=wrap;html=1;fixedSize=1;rounded=1;" vertex="1" parent="WIyWlLk6GJQsqaUBKTNV-1">
          <mxGeometry x="294" y="940" width="120" height="80" as="geometry" />
        </mxCell>
        <mxCell id="3pk-U9PaF1ZGXFq0J-lB-42" value="&lt;span style=&quot;color: rgb(23 , 43 , 77) ; letter-spacing: -0.006em&quot;&gt;&lt;font style=&quot;font-size: 12px&quot;&gt;插入B类订单点位关系表&lt;/font&gt;&lt;/span&gt;&lt;span style=&quot;background-color: rgb(255 , 255 , 255) ; font-family: &amp;#34;jetbrains mono&amp;#34; , monospace ; font-size: 9.8pt&quot;&gt;dsp_audiences_adplace&lt;/span&gt;" style="whiteSpace=wrap;html=1;rounded=1;" vertex="1" parent="WIyWlLk6GJQsqaUBKTNV-1">
          <mxGeometry x="450" y="950" width="190" height="60" as="geometry" />
        </mxCell>
        <mxCell id="3pk-U9PaF1ZGXFq0J-lB-47" value="" style="edgeStyle=orthogonalEdgeStyle;rounded=0;orthogonalLoop=1;jettySize=auto;html=1;fontSize=12;fontColor=#330000;exitX=0.5;exitY=1;exitDx=0;exitDy=0;" edge="1" parent="WIyWlLk6GJQsqaUBKTNV-1" source="3pk-U9PaF1ZGXFq0J-lB-48" target="3pk-U9PaF1ZGXFq0J-lB-46">
          <mxGeometry relative="1" as="geometry" />
        </mxCell>
        <mxCell id="3pk-U9PaF1ZGXFq0J-lB-49" value="" style="edgeStyle=orthogonalEdgeStyle;rounded=0;orthogonalLoop=1;jettySize=auto;html=1;fontSize=12;fontColor=#330000;" edge="1" parent="WIyWlLk6GJQsqaUBKTNV-1" source="3pk-U9PaF1ZGXFq0J-lB-44" target="3pk-U9PaF1ZGXFq0J-lB-48">
          <mxGeometry relative="1" as="geometry" />
        </mxCell>
        <mxCell id="3pk-U9PaF1ZGXFq0J-lB-44" value="记录操作日志&lt;span style=&quot;background-color: rgb(255 , 255 , 255) ; font-family: &amp;#34;jetbrains mono&amp;#34; , monospace ; font-size: 9.8pt&quot;&gt;dsp_oplog&lt;/span&gt;" style="whiteSpace=wrap;html=1;rounded=1;" vertex="1" parent="WIyWlLk6GJQsqaUBKTNV-1">
          <mxGeometry x="90" y="1040" width="120" height="60" as="geometry" />
        </mxCell>
        <mxCell id="3pk-U9PaF1ZGXFq0J-lB-46" value="&lt;pre style=&quot;background-color: #ffffff ; color: #080808 ; font-family: &amp;#34;jetbrains mono&amp;#34; , monospace ; font-size: 9.8pt&quot;&gt;插入订单详情DspStatDB.dsp_order_info&lt;/pre&gt;" style="whiteSpace=wrap;html=1;rounded=1;" vertex="1" parent="WIyWlLk6GJQsqaUBKTNV-1">
          <mxGeometry y="1260" width="300" height="70" as="geometry" />
        </mxCell>
        <mxCell id="3pk-U9PaF1ZGXFq0J-lB-48" value="&lt;pre style=&quot;background-color: rgb(255 , 255 , 255) ; color: rgb(8 , 8 , 8) ; font-family: &amp;#34;jetbrains mono&amp;#34; , monospace ; font-size: 9.8pt&quot;&gt;companyId=1&lt;/pre&gt;" style="rhombus;whiteSpace=wrap;html=1;rounded=1;" vertex="1" parent="WIyWlLk6GJQsqaUBKTNV-1">
          <mxGeometry x="80" y="1130" width="140" height="90" as="geometry" />
        </mxCell>
      </root>
    </mxGraphModel>
  </diagram>
</mxfile>
